<svg width="80" height="80" viewBox="0 0 80 80" fill="none" xmlns="http://www.w3.org/2000/svg">
<path d="M69.9994 53.3332V26.6668C69.9982 25.4977 69.6896 24.3495 69.1046 23.3374C68.5195 22.3252 67.6786 21.4847 66.6661 20.9002L43.333 7.56698C42.3196 6.98187 41.17 6.67383 39.9997 6.67383C38.8295 6.67383 37.6799 6.98187 36.6664 7.56698L13.3333 20.9002C12.3209 21.4847 11.4799 22.3252 10.8949 23.3374C10.3098 24.3495 10.0012 25.4977 10 26.6668V53.3332C10.0012 54.5023 10.3098 55.6505 10.8949 56.6627C11.4799 57.6748 12.3209 58.5153 13.3333 59.0998L36.6664 72.4331C37.6799 73.0182 38.8295 73.3262 39.9997 73.3262C41.17 73.3262 42.3196 73.0182 43.333 72.4331L66.6661 59.0998C67.6786 58.5153 68.5195 57.6748 69.1046 56.6627C69.6896 55.6505 69.9982 54.5023 69.9994 53.3332Z" stroke="black" stroke-width="6.66653" stroke-linecap="round" stroke-linejoin="round"/>
<path d="M70.0008 40L54.999 48.6677V65.9697" stroke="black" stroke-width="6.66653" stroke-linecap="round" stroke-linejoin="round"/>
<path d="M25.0017 65.9697V48.6677L10 40" stroke="black" stroke-width="6.66653" stroke-linecap="round" stroke-linejoin="round"/>
<path d="M10.9004 23.2012L40.0004 40.0345L69.1004 23.2012" stroke="black" stroke-width="6.66653" stroke-linecap="round" stroke-linejoin="round"/>
<path d="M40 73.6005V40.0005" stroke="black" stroke-width="6.66653" stroke-linecap="round" stroke-linejoin="round"/>
<path d="M25.002 14.0342L40.0018 22.7008L55.0017 14.0342" stroke="black" stroke-width="6.66653" stroke-linecap="round" stroke-linejoin="round"/>
</svg>
