<svg width="30" height="30" viewBox="0 0 30 30" fill="none" xmlns="http://www.w3.org/2000/svg">
<g id="caution_rounded_triangle_outline">
<path id="icon/alert/warning_amber_24px" fill-rule="evenodd" clip-rule="evenodd" d="M5.58765 25.6297C3.66265 25.6297 2.46265 23.5422 3.42515 21.8797L12.8377 5.61724C13.8002 3.95474 16.2002 3.95474 17.1627 5.61724L26.5751 21.8797C27.5377 23.5422 26.3377 25.6297 24.4127 25.6297H5.58765ZM24.4122 23.1299L14.9997 6.86737L5.58716 23.1299H24.4122ZM13.75 13.1299V15.6299C13.75 16.3174 14.3125 16.8799 15 16.8799C15.6875 16.8799 16.25 16.3174 16.25 15.6299V13.1299C16.25 12.4424 15.6875 11.8799 15 11.8799C14.3125 11.8799 13.75 12.4424 13.75 13.1299ZM16.25 21.8799V19.3799H13.75V21.8799H16.25Z" fill="#F0EE62"/>
</g>
</svg>
