<svg width="30" height="30" viewBox="0 0 30 30" fill="none" xmlns="http://www.w3.org/2000/svg">
<path fill-rule="evenodd" clip-rule="evenodd" d="M15 2.49976C8.1 2.49976 2.5 8.09976 2.5 14.9998C2.5 21.8998 8.1 27.4998 15 27.4998C21.9 27.4998 27.5 21.8998 27.5 14.9998C27.5 8.09976 21.9 2.49976 15 2.49976ZM14.9998 25.0001C9.48735 25.0001 4.99985 20.5126 4.99985 15.0001C4.99985 9.48756 9.48735 5.00006 14.9998 5.00006C20.5123 5.00006 24.9998 9.48756 24.9998 15.0001C24.9998 20.5126 20.5123 25.0001 14.9998 25.0001ZM12.5001 17.7117L19.8501 10.3617C20.3376 9.87422 21.1376 9.87422 21.6251 10.3617C22.1126 10.8492 22.1126 11.6367 21.6251 12.1242L13.3876 20.3617C12.9001 20.8492 12.1126 20.8492 11.6251 20.3617L8.38763 17.1242C7.90013 16.6367 7.90013 15.8492 8.38763 15.3617C8.62117 15.1277 8.93823 14.9961 9.26888 14.9961C9.59953 14.9961 9.91659 15.1277 10.1501 15.3617L12.5001 17.7117Z" fill="#00BD90"/>
</svg>
