<?xml version="1.0" standalone="no"?>
<!DOCTYPE svg PUBLIC "-//W3C//DTD SVG 20010904//EN"
 "http://www.w3.org/TR/2001/REC-SVG-20010904/DTD/svg10.dtd">
<svg version="1.0" xmlns="http://www.w3.org/2000/svg"
 width="7506.000000pt" height="1275.000000pt" viewBox="0 0 7506.000000 1275.000000"
 preserveAspectRatio="xMidYMid meet">
<metadata>
Created by potrace 1.10, written by Peter Selinger 2001-2011
</metadata>
<g transform="translate(0.000000,1275.000000) scale(0.100000,-0.100000)"
fill="#000000" stroke="none">
<path d="M143 11898 c3 -719 6 -863 19 -918 37 -159 100 -225 253 -266 68 -19
216 -19 6335 -19 6130 0 6267 0 6335 19 122 33 199 100 236 207 29 82 39 365
39 1114 l0 715 -55 0 -55 0 0 -50 c0 -36 -9 -69 -32 -115 -55 -113 -129 -175
-258 -217 -52 -17 -345 -18 -6211 -18 -6036 0 -6158 0 -6215 19 -87 28 -118
47 -172 101 -62 64 -96 128 -112 213 l-14 67 -48 0 -49 0 4 -852z"/>
</g>
</svg>
