<?xml version="1.0" standalone="no"?>
<!DOCTYPE svg PUBLIC "-//W3C//DTD SVG 20010904//EN"
 "http://www.w3.org/TR/2001/REC-SVG-20010904/DTD/svg10.dtd">
<svg version="1.0" xmlns="http://www.w3.org/2000/svg"
 width="300.000000pt" height="51.000000pt" viewBox="0 0 300.000000 51.000000"
 preserveAspectRatio="xMidYMid meet">
<metadata>
Created by potrace 1.10, written by Peter Selinger 2001-2011
</metadata>
<g transform="translate(0.000000,51.000000) scale(0.050000,-0.050000)"
fill="#000000" stroke="none">
<path d="M63 611 c7 -395 9 -412 53 -455 l45 -46 2795 -6 c1888 -4 2817 1
2866 15 109 31 118 72 118 512 0 385 -11 446 -60 328 -53 -127 132 -120 -2898
-114 l-2759 5 -51 48 c-29 27 -52 65 -52 85 0 21 -14 37 -32 37 -29 0 -31 -44
-25 -409z"/>
</g>
</svg>
