<svg width="30" height="30" viewBox="0 0 30 30" fill="none" xmlns="http://www.w3.org/2000/svg">
<path fill-rule="evenodd" clip-rule="evenodd" d="M2.5 15C2.5 8.1 8.0875 2.5 14.9875 2.5C21.9 2.5 27.5 8.1 27.5 15C27.5 21.9 21.9 27.5 14.9875 27.5C8.0875 27.5 2.5 21.9 2.5 15ZM16.25 10C16.25 9.3125 15.6875 8.75 15 8.75C14.3125 8.75 13.75 9.3125 13.75 10V15C13.75 15.6875 14.3125 16.25 15 16.25C15.6875 16.25 16.25 15.6875 16.25 15V10ZM15 25C9.475 25 5 20.525 5 15C5 9.475 9.475 5 15 5C20.525 5 25 9.475 25 15C25 20.525 20.525 25 15 25ZM13.75 18.75V21.25H16.25V18.75H13.75Z" fill="#BD002D"/>
</svg>
