<svg width="80" height="80" viewBox="0 0 80 80" fill="none" xmlns="http://www.w3.org/2000/svg">
<g clip-path="url(#clip0_67_1180)">
<path d="M40.0021 50.0018C45.5256 50.0018 50.0033 45.5242 50.0033 40.0007C50.0033 34.4772 45.5256 29.9995 40.0021 29.9995C34.4786 29.9995 30.001 34.4772 30.001 40.0007C30.001 45.5242 34.4786 50.0018 40.0021 50.0018Z" stroke="black" stroke-width="6.66653" stroke-linecap="round" stroke-linejoin="round"/>
<path d="M64.6654 50.0002C64.2217 51.0056 64.0893 52.1208 64.2854 53.2021C64.4814 54.2834 64.9969 55.2812 65.7654 56.0668L65.9654 56.2668C66.5852 56.886 67.0769 57.6212 67.4124 58.4306C67.7479 59.2399 67.9206 60.1074 67.9206 60.9835C67.9206 61.8596 67.7479 62.7271 67.4124 63.5364C67.0769 64.3458 66.5852 65.081 65.9654 65.7002C65.3462 66.32 64.611 66.8117 63.8016 67.1472C62.9923 67.4827 62.1248 67.6554 61.2487 67.6554C60.3726 67.6554 59.5051 67.4827 58.6958 67.1472C57.8864 66.8117 57.1512 66.32 56.532 65.7002L56.332 65.5002C55.5464 64.7317 54.5486 64.2162 53.4673 64.0202C52.386 63.8241 51.2708 63.9565 50.2654 64.4002C49.2795 64.8227 48.4386 65.5243 47.8464 66.4186C47.2541 67.3129 46.9363 68.3609 46.932 69.4335V70.0002C46.932 71.7683 46.2297 73.464 44.9794 74.7142C43.7292 75.9645 42.0335 76.6668 40.2654 76.6668C38.4973 76.6668 36.8016 75.9645 35.5513 74.7142C34.3011 73.464 33.5987 71.7683 33.5987 70.0002V69.7002C33.5729 68.5969 33.2158 67.5268 32.5737 66.6292C31.9317 65.7315 31.0345 65.0478 29.9987 64.6668C28.9933 64.2231 27.8781 64.0908 26.7967 64.2868C25.7154 64.4829 24.7176 64.9984 23.932 65.7668L23.732 65.9668C23.1129 66.5867 22.3776 67.0784 21.5683 67.4139C20.759 67.7494 19.8915 67.9221 19.0154 67.9221C18.1393 67.9221 17.2718 67.7494 16.4624 67.4139C15.6531 67.0784 14.9179 66.5867 14.2987 65.9668C13.6789 65.3477 13.1871 64.6124 12.8516 63.8031C12.5161 62.9938 12.3435 62.1263 12.3435 61.2502C12.3435 60.3741 12.5161 59.5066 12.8516 58.6972C13.1871 57.8879 13.6789 57.1527 14.2987 56.5335L14.4987 56.3335C15.2672 55.5479 15.7827 54.5501 15.9787 53.4688C16.1748 52.3875 16.0424 51.2722 15.5987 50.2668C15.1762 49.2809 14.4746 48.4401 13.5803 47.8479C12.6859 47.2556 11.638 46.9378 10.5654 46.9335H9.9987C8.23059 46.9335 6.5349 46.2311 5.28465 44.9809C4.03441 43.7306 3.33203 42.0349 3.33203 40.2668C3.33203 38.4987 4.03441 36.803 5.28465 35.5528C6.5349 34.3025 8.23059 33.6002 9.9987 33.6002H10.2987C11.402 33.5744 12.472 33.2172 13.3697 32.5752C14.2673 31.9332 14.9511 31.036 15.332 30.0002C15.7757 28.9948 15.9081 27.8795 15.712 26.7982C15.516 25.7169 15.0005 24.7191 14.232 23.9335L14.032 23.7335C13.4122 23.1143 12.9205 22.3791 12.585 21.5698C12.2495 20.7604 12.0768 19.8929 12.0768 19.0168C12.0768 18.1407 12.2495 17.2732 12.585 16.4639C12.9205 15.6546 13.4122 14.9193 14.032 14.3002C14.6512 13.6803 15.3864 13.1886 16.1958 12.8531C17.0051 12.5176 17.8726 12.3449 18.7487 12.3449C19.6248 12.3449 20.4923 12.5176 21.3016 12.8531C22.111 13.1886 22.8462 13.6803 23.4654 14.3002L23.6654 14.5002C24.451 15.2686 25.4488 15.7841 26.5301 15.9802C27.6114 16.1762 28.7266 16.0439 29.732 15.6002H29.9987C30.9846 15.1776 31.8254 14.476 32.4177 13.5817C33.0099 12.6874 33.3278 11.6395 33.332 10.5668V10.0002C33.332 8.23205 34.0344 6.53636 35.2847 5.28612C36.5349 4.03588 38.2306 3.3335 39.9987 3.3335C41.7668 3.3335 43.4625 4.03588 44.7127 5.28612C45.963 6.53636 46.6654 8.23205 46.6654 10.0002V10.3002C46.6696 11.3728 46.9875 12.4207 47.5797 13.315C48.172 14.2093 49.0128 14.911 49.9987 15.3335C51.0041 15.7772 52.1193 15.9096 53.2007 15.7135C54.282 15.5174 55.2798 15.002 56.0654 14.2335L56.2654 14.0335C56.8845 13.4137 57.6198 12.9219 58.4291 12.5864C59.2384 12.2509 60.1059 12.0783 60.982 12.0783C61.8581 12.0783 62.7257 12.2509 63.535 12.5864C64.3443 12.9219 65.0795 13.4137 65.6987 14.0335C66.3185 14.6527 66.8103 15.3879 67.1458 16.1972C67.4813 17.0065 67.654 17.8741 67.654 18.7502C67.654 19.6263 67.4813 20.4938 67.1458 21.3031C66.8103 22.1124 66.3185 22.8477 65.6987 23.4668L65.4987 23.6668C64.7302 24.4524 64.2148 25.4502 64.0187 26.5315C63.8226 27.6129 63.955 28.7281 64.3987 29.7335V30.0002C64.8212 30.9861 65.5229 31.8269 66.4172 32.4191C67.3115 33.0114 68.3594 33.3292 69.432 33.3335H69.9987C71.7668 33.3335 73.4625 34.0359 74.7128 35.2861C75.963 36.5364 76.6654 38.2321 76.6654 40.0002C76.6654 41.7683 75.963 43.464 74.7128 44.7142C73.4625 45.9645 71.7668 46.6668 69.9987 46.6668H69.6987C68.6261 46.6711 67.5781 46.9889 66.6838 47.5812C65.7895 48.1734 65.0879 49.0143 64.6654 50.0002V50.0002Z" stroke="black" stroke-width="6.66653" stroke-linecap="round" stroke-linejoin="round"/>
</g>
<defs>
<clipPath id="clip0_67_1180">
<rect width="80" height="80" fill="white"/>
</clipPath>
</defs>
</svg>
